# xmcd CD database file
#
# Track frame offsets:
#	150
#	12502
#	25898
#	39841
#	53420
#	65833
#	83518
#	94908
#	107756
#	118043
#	129455
#	140896
#	153432
#	164842
#	178272
#	191755
#	203872
#	215388
#	231090
#	245601
#
# Disc length: 3419 seconds
#
# Revision: 0
# Processed by: cddbd v1.5.2PL0 Copyright (c) Steve Scherf et al.
# Submitted via: CDex 1.51
#
DISCID=210d5914
DTITLE=B.B. KING - Kings Of The Blues Guitar(60 Original Blues Classics On 3 CDs)
DYEAR=2014
DGENRE=Blues
TTITLE0=Everyday I Have The Blues
TTITLE1=Sweet Little Angel
TTITLE2=When My Heart Beats Like A Hammer
TTITLE3=Three O'Clock Blues
TTITLE4=Please Love Me
TTITLE5=Hold That Train
TTITLE6=Sweet Sixteen(Part 2)
TTITLE7=Why Do Things Hoppe To Me
TTITLE8=That Ain't The Way To Do It
TTITLE9=Early In The Morning
TTITLE10=Please Accept My Love
TTITLE11=What Can I Do
TTITLE12=The Fool
TTITLE13=You Upset Me Baby
TTITLE14=Boogie Rock(House Rocker)
TTITLE15=Sugar Mama
TTITLE16=Ruby Lee
TTITLE17=My Own Fault, Darlin'
TTITLE18=The Woman I Love
TTITLE19=Treat Me Right
EXTD=YEAR: 2014
EXTT0=
EXTT1=
EXTT2=
EXTT3=
EXTT4=
EXTT5=
EXTT6=
EXTT7=
EXTT8=
EXTT9=
EXTT10=
EXTT11=
EXTT12=
EXTT13=
EXTT14=
EXTT15=
EXTT16=
EXTT17=
EXTT18=
EXTT19=
PLAYORDER=
